<mxfile host="app.diagrams.net" agent="Mozilla/5.0 (Windows NT 10.0; Win64; x64) AppleWebKit/537.36 (KHTML, like Gecko) Chrome/130.0.0.0 Safari/537.36" version="25.0.3">
  <diagram name="Trang-1" id="aP7PtPoQ5Oy3RzwMI_nn">
    <mxGraphModel grid="1" page="1" gridSize="10" guides="1" tooltips="1" connect="1" arrows="1" fold="1" pageScale="1" pageWidth="827" pageHeight="1169" math="0" shadow="0">
      <root>
        <mxCell id="0" />
        <mxCell id="1" parent="0" />
        <mxCell id="QSWCOl7mw64EkvkWASSm-5" value="" style="edgeStyle=orthogonalEdgeStyle;rounded=0;orthogonalLoop=1;jettySize=auto;html=1;" edge="1" parent="1" source="QSWCOl7mw64EkvkWASSm-1" target="QSWCOl7mw64EkvkWASSm-4">
          <mxGeometry relative="1" as="geometry" />
        </mxCell>
        <mxCell id="QSWCOl7mw64EkvkWASSm-1" value="start" style="ellipse;whiteSpace=wrap;html=1;" vertex="1" parent="1">
          <mxGeometry x="320" y="150" width="120" height="80" as="geometry" />
        </mxCell>
        <mxCell id="QSWCOl7mw64EkvkWASSm-7" value="" style="edgeStyle=orthogonalEdgeStyle;rounded=0;orthogonalLoop=1;jettySize=auto;html=1;" edge="1" parent="1" source="QSWCOl7mw64EkvkWASSm-4" target="QSWCOl7mw64EkvkWASSm-6">
          <mxGeometry relative="1" as="geometry" />
        </mxCell>
        <mxCell id="QSWCOl7mw64EkvkWASSm-4" value="khởi tạo biến j=0;i=2" style="whiteSpace=wrap;html=1;" vertex="1" parent="1">
          <mxGeometry x="320" y="320" width="120" height="60" as="geometry" />
        </mxCell>
        <mxCell id="QSWCOl7mw64EkvkWASSm-9" value="" style="edgeStyle=orthogonalEdgeStyle;rounded=0;orthogonalLoop=1;jettySize=auto;html=1;" edge="1" parent="1" source="QSWCOl7mw64EkvkWASSm-6" target="QSWCOl7mw64EkvkWASSm-8">
          <mxGeometry relative="1" as="geometry" />
        </mxCell>
        <mxCell id="QSWCOl7mw64EkvkWASSm-6" value="while( j&amp;lt;n )" style="shape=parallelogram;perimeter=parallelogramPerimeter;whiteSpace=wrap;html=1;fixedSize=1;" vertex="1" parent="1">
          <mxGeometry x="320" y="460" width="120" height="60" as="geometry" />
        </mxCell>
        <mxCell id="QSWCOl7mw64EkvkWASSm-8" value="end" style="ellipse;whiteSpace=wrap;html=1;" vertex="1" parent="1">
          <mxGeometry x="340" y="1000" width="80" height="80" as="geometry" />
        </mxCell>
        <mxCell id="QSWCOl7mw64EkvkWASSm-11" value="" style="edgeStyle=none;orthogonalLoop=1;jettySize=auto;html=1;rounded=0;" edge="1" parent="1" target="QSWCOl7mw64EkvkWASSm-13">
          <mxGeometry width="100" relative="1" as="geometry">
            <mxPoint x="380" y="589.5" as="sourcePoint" />
            <mxPoint x="520" y="589.5" as="targetPoint" />
            <Array as="points" />
          </mxGeometry>
        </mxCell>
        <mxCell id="QSWCOl7mw64EkvkWASSm-15" value="" style="edgeStyle=orthogonalEdgeStyle;rounded=0;orthogonalLoop=1;jettySize=auto;html=1;" edge="1" parent="1" source="QSWCOl7mw64EkvkWASSm-13" target="QSWCOl7mw64EkvkWASSm-14">
          <mxGeometry relative="1" as="geometry" />
        </mxCell>
        <mxCell id="QSWCOl7mw64EkvkWASSm-18" value="" style="edgeStyle=orthogonalEdgeStyle;rounded=0;orthogonalLoop=1;jettySize=auto;html=1;" edge="1" parent="1" source="QSWCOl7mw64EkvkWASSm-13" target="QSWCOl7mw64EkvkWASSm-17">
          <mxGeometry relative="1" as="geometry" />
        </mxCell>
        <mxCell id="QSWCOl7mw64EkvkWASSm-13" value="khai báo hàm kiểm tra số nguyên tố" style="whiteSpace=wrap;html=1;" vertex="1" parent="1">
          <mxGeometry x="450" y="560" width="120" height="60" as="geometry" />
        </mxCell>
        <mxCell id="QSWCOl7mw64EkvkWASSm-16" style="edgeStyle=orthogonalEdgeStyle;rounded=0;orthogonalLoop=1;jettySize=auto;html=1;entryX=1;entryY=0.5;entryDx=0;entryDy=0;" edge="1" parent="1" source="QSWCOl7mw64EkvkWASSm-14" target="QSWCOl7mw64EkvkWASSm-8">
          <mxGeometry relative="1" as="geometry">
            <mxPoint x="710" y="880" as="targetPoint" />
            <Array as="points">
              <mxPoint x="710" y="755" />
              <mxPoint x="711" y="755" />
              <mxPoint x="711" y="1030" />
              <mxPoint x="420" y="1030" />
            </Array>
          </mxGeometry>
        </mxCell>
        <mxCell id="QSWCOl7mw64EkvkWASSm-14" value="if a&amp;lt;=1" style="rhombus;whiteSpace=wrap;html=1;" vertex="1" parent="1">
          <mxGeometry x="670" y="550" width="80" height="80" as="geometry" />
        </mxCell>
        <mxCell id="QSWCOl7mw64EkvkWASSm-20" value="" style="edgeStyle=orthogonalEdgeStyle;rounded=0;orthogonalLoop=1;jettySize=auto;html=1;" edge="1" parent="1" source="QSWCOl7mw64EkvkWASSm-17" target="QSWCOl7mw64EkvkWASSm-19">
          <mxGeometry relative="1" as="geometry" />
        </mxCell>
        <mxCell id="QSWCOl7mw64EkvkWASSm-17" value="kiểm tra từ 2 đến sqrt(a)" style="shape=parallelogram;perimeter=parallelogramPerimeter;whiteSpace=wrap;html=1;fixedSize=1;" vertex="1" parent="1">
          <mxGeometry x="450" y="650" width="120" height="60" as="geometry" />
        </mxCell>
        <mxCell id="QSWCOl7mw64EkvkWASSm-21" style="edgeStyle=orthogonalEdgeStyle;rounded=0;orthogonalLoop=1;jettySize=auto;html=1;" edge="1" parent="1" source="QSWCOl7mw64EkvkWASSm-19">
          <mxGeometry relative="1" as="geometry">
            <mxPoint x="380" y="800" as="targetPoint" />
          </mxGeometry>
        </mxCell>
        <mxCell id="QSWCOl7mw64EkvkWASSm-26" value="" style="edgeStyle=orthogonalEdgeStyle;rounded=0;orthogonalLoop=1;jettySize=auto;html=1;" edge="1" parent="1" source="QSWCOl7mw64EkvkWASSm-19" target="QSWCOl7mw64EkvkWASSm-25">
          <mxGeometry relative="1" as="geometry" />
        </mxCell>
        <mxCell id="QSWCOl7mw64EkvkWASSm-19" value="set i=2&lt;br&gt;nếu a chia hết cho i&amp;nbsp;" style="rhombus;whiteSpace=wrap;html=1;" vertex="1" parent="1">
          <mxGeometry x="470" y="760" width="80" height="80" as="geometry" />
        </mxCell>
        <mxCell id="QSWCOl7mw64EkvkWASSm-22" value="đúng" style="text;html=1;align=center;verticalAlign=middle;resizable=0;points=[];autosize=1;strokeColor=none;fillColor=none;" vertex="1" parent="1">
          <mxGeometry x="395" y="768" width="50" height="30" as="geometry" />
        </mxCell>
        <mxCell id="QSWCOl7mw64EkvkWASSm-28" value="" style="edgeStyle=orthogonalEdgeStyle;rounded=0;orthogonalLoop=1;jettySize=auto;html=1;" edge="1" parent="1" source="QSWCOl7mw64EkvkWASSm-25" target="QSWCOl7mw64EkvkWASSm-27">
          <mxGeometry relative="1" as="geometry" />
        </mxCell>
        <mxCell id="QSWCOl7mw64EkvkWASSm-25" value="nếu không chia hết là số nguyên tố" style="rhombus;whiteSpace=wrap;html=1;" vertex="1" parent="1">
          <mxGeometry x="600" y="762.5" width="80" height="75" as="geometry" />
        </mxCell>
        <mxCell id="QSWCOl7mw64EkvkWASSm-30" value="" style="edgeStyle=orthogonalEdgeStyle;rounded=0;orthogonalLoop=1;jettySize=auto;html=1;" edge="1" parent="1" source="QSWCOl7mw64EkvkWASSm-27" target="QSWCOl7mw64EkvkWASSm-29">
          <mxGeometry relative="1" as="geometry" />
        </mxCell>
        <mxCell id="QSWCOl7mw64EkvkWASSm-27" value="in i và tăng j" style="rounded=1;whiteSpace=wrap;html=1;" vertex="1" parent="1">
          <mxGeometry x="590" y="880" width="100" height="50" as="geometry" />
        </mxCell>
        <mxCell id="QSWCOl7mw64EkvkWASSm-31" style="edgeStyle=orthogonalEdgeStyle;rounded=0;orthogonalLoop=1;jettySize=auto;html=1;" edge="1" parent="1" source="QSWCOl7mw64EkvkWASSm-29">
          <mxGeometry relative="1" as="geometry">
            <mxPoint x="460" y="1030" as="targetPoint" />
            <Array as="points">
              <mxPoint x="460" y="950" />
              <mxPoint x="460" y="950" />
            </Array>
          </mxGeometry>
        </mxCell>
        <mxCell id="QSWCOl7mw64EkvkWASSm-29" value="tăng i" style="whiteSpace=wrap;html=1;rounded=1;" vertex="1" parent="1">
          <mxGeometry x="414" y="885" width="90" height="40" as="geometry" />
        </mxCell>
      </root>
    </mxGraphModel>
  </diagram>
</mxfile>
